<?xml version="1.1" encoding="UTF-8" standalone="no"?>
<svg width="656px" height="175px" xmlns="http://www.w3.org/2000/svg" version="1.1">
    <title>yesod_logo</title>
    <description>Created with Sketch (http://www.bohemiancoding.com/sketch)</description>
    <defs></defs>
    <g fill="none" id="Main Page">
        <g fill="none" id="Haskell Logo">
            <path id="back" d="M1,5 L41,5 L99,91 L42,176 L1,176 L1,175 L57,91 L1,6 L1,5" fill="rgb(85,91,93)"></path>
            <path id="back decoration" d="" fill="rgb(85,91,93)"></path>
            <path id="forward" d="M58,5 L98,5 L156,91 L99,176 L58,176 L58,175 L114,91 L58,6 L58,5" fill="rgb(122,129,133)"></path>
            <path id="forward decoration" d="" fill="rgb(122,129,133)"></path>
            <path id="long" d="M630,24 L630,55 L147,55 L126,24" fill="rgb(85,91,93)"></path>
            <path id="long decoration" d="" fill="rgb(85,91,93)"></path>
            <path id="long" d="M630,155 L630,124 L147,124 L126,155" fill="rgb(85,91,93)"></path>
            <path id="long decoration" d="" fill="rgb(85,91,93)"></path>
        </g>
        <path id="Rectangle" d="M358,65 L358,113 L384,113 L384,65 L358,65" fill="rgb(33,36,37)"></path>
        <path id="Rectangle decoration" d="" fill="rgb(33,36,37)"></path>
        <path id="Rectangle" d="M470,65 L470,113 L496,113 L496,65 L470,65" fill="rgb(102,109,112)"></path>
        <path id="Rectangle decoration" d="" fill="rgb(102,109,112)"></path>
        <path id="Rectangle" d="M396,65 L396,113 L422,113 L422,65 L396,65" fill="rgb(51,55,57)"></path>
        <path id="Rectangle decoration" d="" fill="rgb(51,55,57)"></path>
        <path id="Rectangle" d="M508,65 L508,113 L534,113 L534,65 L508,65" fill="rgb(122,129,133)"></path>
        <path id="Rectangle decoration" d="" fill="rgb(122,129,133)"></path>
        <path id="Rectangle" d="M435,65 L435,113 L461,113 L461,65 L435,65" fill="rgb(85,91,93)"></path>
        <path id="Rectangle decoration" d="" fill="rgb(85,91,93)"></path>
        <path id="Rectangle" d="M547,65 L547,113 L573,113 L573,65 L547,65" fill="rgb(168,177,180)"></path>
        <path id="Rectangle decoration" d="" fill="rgb(168,177,180)"></path>
        <path id="Shape" d="M155,65 L165,65 L174,84 L183,65 L193,65 L178,94 L178,112 L169,112 L169,94 L169,94 L155,65 M227,112 L198,112 L198,65 L227,65 L227,74 L208,74 L208,84 L225,84 L225,92 L208,92 L208,104 L227,104 L227,104 L227,112 M248,92 C243,90 240,88 238,86 C236,84 236,81 236,78 C236,74 237,71 240,68 C242,66 246,65 251,65 C253,65 255,65 257,65 C259,66 262,67 264,68 L264,77 C262,75 260,74 258,73 C256,73 254,72 252,72 C249,72 248,73 246,74 C245,74 245,76 245,77 C245,79 245,80 246,81 C247,81 249,82 251,83 L255,85 C259,86 262,88 264,90 C265,93 266,96 266,99 C266,104 265,107 262,110 C259,112 255,113 249,113 C247,113 245,113 243,112 C240,112 238,111 236,110 L236,100 C238,102 241,103 243,104 C245,105 247,105 250,105 C252,105 254,105 255,104 C256,103 257,101 257,100 C257,98 256,97 256,96 C255,95 254,94 252,93 C252,93 254,94 252,93 L248,92 M289,73 C287,73 285,74 284,77 C283,79 283,83 283,89 C283,94 283,98 284,101 C285,103 287,105 289,105 C292,105 293,103 295,101 C296,98 296,94 296,89 C296,83 296,79 295,77 C293,74 292,73 289,73 C289,73 292,73 289,73 L289,73 M273,89 C273,81 274,75 277,71 C280,67 284,65 289,65 C295,65 299,67 302,71 C304,75 306,81 306,89 C306,97 304,103 302,107 C299,111 295,113 289,113 C284,113 280,111 277,107 C274,103 273,97 273,89 C273,89 273,97 273,89 L273,89 M322,74 L322,104 L325,104 C328,104 331,103 332,100 C334,98 335,94 335,89 C335,83 334,79 332,77 C331,75 328,74 325,74 C325,74 328,74 325,74 L322,74 M313,65 L323,65 C330,65 336,67 339,71 C343,75 344,80 344,89 C344,97 343,103 339,107 C336,110 330,112 323,112 L313,112 L313,112 L313,65" stroke="rgb(144,152,156)" stroke-width="1" fill="rgb(122,129,133)"></path>
        <path id="Shape decoration" d="" stroke="rgb(144,152,156)" stroke-width="1" fill="rgb(122,129,133)"></path>
    </g>
</svg>